<?xml version="1.0" standalone="no"?><!DOCTYPE svg PUBLIC "-//W3C//DTD SVG 1.1//EN" "http://www.w3.org/Graphics/SVG/1.1/DTD/svg11.dtd"><svg t="1608089016829" class="icon" viewBox="0 0 1024 1024" version="1.1" xmlns="http://www.w3.org/2000/svg" p-id="11074" xmlns:xlink="http://www.w3.org/1999/xlink" width="200" height="200"><defs><style type="text/css"></style></defs><path d="M430.08 774.625882c-18.070588 18.070588-48.188235 18.070588-67.463529 0L131.312941 542.117647c-18.070588-18.070588-18.070588-48.188235 0-67.463529l0 0c18.070588-18.070588 48.188235-18.070588 67.463529 0l232.508235 232.508235C449.355294 725.232941 449.355294 755.350588 430.08 774.625882L430.08 774.625882 430.08 774.625882zM893.891765 250.578824c18.070588 18.070588 18.070588 48.188235 0 67.463529L437.308235 774.625882c-18.070588 18.070588-48.188235 18.070588-67.463529 0l0 0c-18.070588-18.070588-18.070588-48.188235 0-67.463529l456.583529-456.583529C844.498824 231.303529 874.616471 231.303529 893.891765 250.578824L893.891765 250.578824 893.891765 250.578824zM893.891765 250.578824" p-id="11075" fill="#129F4A"></path></svg>