<?xml version="1.0" standalone="no"?><!DOCTYPE svg PUBLIC "-//W3C//DTD SVG 1.1//EN" "http://www.w3.org/Graphics/SVG/1.1/DTD/svg11.dtd"><svg t="1608045881865" class="icon" viewBox="0 0 1024 1024" version="1.1" xmlns="http://www.w3.org/2000/svg" p-id="8121" xmlns:xlink="http://www.w3.org/1999/xlink" width="200" height="200"><defs><style type="text/css"></style></defs><path d="M324.967768 407.195026l169.911808 0c6.107091 0 11.050684 5.531993 11.050684 12.278651 0 6.789637-4.943592 12.284791-11.050684 12.284791L324.967768 431.758468c-6.096858 0-11.050684-5.495154-11.050684-12.284791C313.917084 412.719856 318.884213 407.195026 324.967768 407.195026zM324.967768 351.918072l169.911808 0c6.107091 0 11.050684 5.525853 11.050684 12.285814 0 6.776334-4.943592 12.241812-11.050684 12.241812L324.967768 376.445698c-6.096858 0-11.050684-5.465478-11.050684-12.241812C313.917084 357.443925 318.884213 351.918072 324.967768 351.918072zM62.378188 884.909152 62.378188 699.56691l69.096704 0c6.111185 0 11.007705-5.480828 11.007705-12.248975 0-6.746658-4.909823-12.274558-11.007705-12.274558L62.378188 675.043377l0-34.528398 69.096704 0c6.111185 0 11.007705-5.495154 11.007705-12.258185 0-6.743588-4.909823-12.282744-11.007705-12.282744L62.378188 615.97405l0-34.521235 69.096704 0c6.111185 0 11.007705-5.487991 11.007705-12.252045 0-6.743588-4.909823-12.275581-11.007705-12.275581L62.378188 556.925189l0-30.464849c0-30.637788 24.774243-55.504128 55.383378-55.504128l271.858688 0c30.655184 0 55.489802 24.865317 55.489802 55.504128l0 29.133527 320.383868 0 0-91.514273L638.552789 464.079594c-51.510164 0-93.507674-41.966811-93.507674-93.560886L545.045115 251.122411c-67.853387 0-229.596142 0-229.596142 0-24.62791 0-44.552705 20.035312-44.552705 44.593638l0 55.489802c0 13.506619-11.051707 24.480554-24.558325 24.480554s-24.453948-10.974959-24.453948-24.480554l0-55.489802c0-51.543933 41.99444-93.544513 93.564979-93.544513l268.261767 0c6.636141 0 12.964266 2.702552 17.540492 7.439436l206.226898 210.698746c4.468778 4.635577 6.971785 10.730389 6.971785 17.126053L814.449915 555.586704l87.633896 0c30.759561 0 55.530734 24.859177 55.530734 55.496965l0 273.812179L62.378188 884.895849 62.378188 884.909152zM594.012364 272.127817l0 98.377588c0 24.623817 19.981077 44.632523 44.539402 44.632523l95.306646 0C694.163341 374.489136 627.881752 306.772872 594.012364 272.127817zM902.089951 956.134333 117.761566 956.134333c-27.564799 0-50.326199-20.309558-54.577013-46.747697l893.626697 0c-4.301979 26.438139-26.966165 46.747697-54.727439 46.747697L902.089951 956.134333z" p-id="8122" fill="#7D87B3"></path></svg>