<?xml version="1.0" standalone="no"?><!DOCTYPE svg PUBLIC "-//W3C//DTD SVG 1.1//EN" "http://www.w3.org/Graphics/SVG/1.1/DTD/svg11.dtd"><svg t="1608045975751" class="icon" viewBox="0 0 1024 1024" version="1.1" xmlns="http://www.w3.org/2000/svg" p-id="9723" xmlns:xlink="http://www.w3.org/1999/xlink" width="200" height="200"><defs><style type="text/css"></style></defs><path d="M795.456 85.952A40.192 40.192 0 0 0 758.848 64H276.096c-14.592 0-29.248 0-36.544 7.296-7.296 7.36-102.4 102.4-109.696 117.056H883.2c-14.656-14.656-21.952-29.248-36.544-43.904a1900.48 1900.48 0 0 0-51.2-58.496z m58.496 548.544H151.68c-29.248 0-51.2 7.36-65.792 21.952-14.656 21.952-21.952 36.608-21.952 58.496v139.008c0 29.248 7.296 51.2 29.248 65.792 14.656 14.656 36.608 21.952 58.496 21.952H846.72c29.248 0 51.2-7.296 65.792-21.952 14.656-14.592 21.952-36.544 21.952-58.496v-146.304c0-21.888-7.296-43.84-21.952-58.496-7.296-14.592-29.248-21.952-58.496-21.952z m65.792-343.744c14.656 14.592 21.952 29.248 21.952 51.2v146.304c0 21.888-7.296 43.84-21.952 58.496-14.592 14.592-36.544 21.952-65.792 21.952H151.68c-29.248 0-51.2-7.36-65.792-21.952C71.296 532.096 64 510.08 64 488.256V341.952c0-21.952 7.296-36.608 21.952-51.2 14.592-14.656 36.544-21.952 65.792-21.952h702.208c29.248 0 51.2 7.296 65.792 21.952zM448 768h128a32 32 0 1 1 0 64H448a32 32 0 1 1 0-64z m0-384a32 32 0 0 0 0 64h128a32 32 0 0 0 0-64H448z" p-id="9724" fill="#3EADFE"></path></svg>